<svg xmlns="http://www.w3.org/2000/svg" viewBox="0 0 48 48" fill="none">
  <!-- 新春坐骑 - 骏马图标 -->
  <!-- 马身体 -->
  <path d="M38 20c0-2-1-4-3-5l-3-1-2-6-4 3-2 2H18c-4 0-7 3-8 6l-2 5h3l2 10h5l2-8h8l2 8h5l2-10h3l-2-5z"
        fill="#D4956A" fill-opacity="0.2" stroke="#D4956A" stroke-width="2" stroke-linecap="round" stroke-linejoin="round"/>
  <!-- 马头鬃毛 -->
  <path d="M30 8c1-2 2-4 4-5" stroke="#D4956A" stroke-width="2" stroke-linecap="round"/>
  <path d="M28 10c1-1 2-3 3-4" stroke="#D4956A" stroke-width="2" stroke-linecap="round"/>
  <!-- 马眼睛 -->
  <circle cx="32" cy="16" r="1.5" fill="#D4956A"/>
  <!-- 马腿 -->
  <path d="M15 34v6M21 34v6M31 34v6M37 34v6" stroke="#D4956A" stroke-width="2" stroke-linecap="round"/>
  <!-- 马蹄 -->
  <ellipse cx="15" cy="41" rx="2" ry="1" fill="#D4956A"/>
  <ellipse cx="21" cy="41" rx="2" ry="1" fill="#D4956A"/>
  <ellipse cx="31" cy="41" rx="2" ry="1" fill="#D4956A"/>
  <ellipse cx="37" cy="41" rx="2" ry="1" fill="#D4956A"/>
  <!-- 马尾 -->
  <path d="M8 22c-2 2-3 5-2 8" stroke="#D4956A" stroke-width="2" stroke-linecap="round"/>
  <path d="M9 24c-2 1-3 4-2 6" stroke="#D4956A" stroke-width="2" stroke-linecap="round"/>
  <!-- 装饰祥云 -->
  <path d="M40 28c1 0 2 1 2 2s-1 2-2 2c0 1-1 2-2 2h-3c-1 0-2-1-2-2 0 0 0-1 1-1-1-1-1-2 0-3 1-1 2-1 3 0 0-1 1-1 2-1 1 0 1 1 1 1z"
        fill="#FFD700" fill-opacity="0.3" stroke="#FFD700" stroke-width="1"/>
</svg>
